<svg width="526" height="415" viewBox="0 0 526 415" fill="none" xmlns="http://www.w3.org/2000/svg">
<g style="mix-blend-mode:multiply" opacity="0.23">
<path d="M316.772 82.1051C316.248 82.1051 315.745 81.8969 315.375 81.5264C315.004 81.1559 314.796 80.6533 314.796 80.1293V61.7316H276.031C275.507 61.7316 275.004 61.5234 274.634 61.1529C274.263 60.7824 274.055 60.2798 274.055 59.7558C274.055 59.2318 274.263 58.7292 274.634 58.3587C275.004 57.9882 275.507 57.78 276.031 57.78H316.772C317.296 57.78 317.798 57.9882 318.169 58.3587C318.539 58.7292 318.748 59.2318 318.748 59.7558V80.1293C318.748 80.6533 318.539 81.1559 318.169 81.5264C317.798 81.8969 317.296 82.1051 316.772 82.1051Z" fill="#FDF6F9"/>
<path d="M316.772 82.1051C316.248 82.1051 315.745 81.8969 315.375 81.5264C315.004 81.1559 314.796 80.6533 314.796 80.1293V59.7558C314.796 59.2318 315.004 58.7292 315.375 58.3587C315.745 57.9882 316.248 57.78 316.772 57.78H357.511C358.035 57.78 358.538 57.9882 358.908 58.3587C359.279 58.7292 359.487 59.2318 359.487 59.7558C359.487 60.2798 359.279 60.7824 358.908 61.1529C358.538 61.5234 358.035 61.7316 357.511 61.7316H318.748V80.1293C318.748 80.6533 318.54 81.1559 318.169 81.5264C317.798 81.8969 317.296 82.1051 316.772 82.1051Z" fill="#FDF6F9"/>
<path d="M337.144 61.7317H296.402C295.878 61.7317 295.375 61.5235 295.005 61.153C294.634 60.7825 294.426 60.2799 294.426 59.7559V39.3857C294.426 38.8617 294.634 38.3591 295.005 37.9886C295.375 37.6181 295.878 37.4099 296.402 37.4099H337.144C337.668 37.4099 338.17 37.6181 338.541 37.9886C338.911 38.3591 339.119 38.8617 339.119 39.3857V59.7559C339.119 60.2799 338.911 60.7825 338.541 61.153C338.17 61.5235 337.668 61.7317 337.144 61.7317ZM298.378 57.7801H335.168V41.3615H298.378V57.7801Z" fill="#FDF6F9"/>
<path d="M357.511 41.3614H316.772C316.248 41.3614 315.745 41.1533 315.375 40.7828C315.004 40.4122 314.796 39.9097 314.796 39.3857V19.0122C314.796 18.4881 315.004 17.9856 315.375 17.6151C315.745 17.2445 316.248 17.0364 316.772 17.0364H328.348C328.872 17.0364 329.375 17.2445 329.745 17.6151C330.116 17.9856 330.324 18.4881 330.324 19.0122C330.324 19.5362 330.116 20.0387 329.745 20.4092C329.375 20.7798 328.872 20.9879 328.348 20.9879H318.748V37.4073H357.511C358.035 37.4073 358.538 37.6154 358.908 37.9859C359.279 38.3565 359.487 38.859 359.487 39.383C359.487 39.907 359.279 40.4096 358.908 40.7801C358.538 41.1506 358.035 41.3588 357.511 41.3588V41.3614Z" fill="#FDF6F9"/>
<path d="M316.772 41.3614H276.031C275.507 41.3614 275.004 41.1533 274.634 40.7828C274.263 40.4122 274.055 39.9097 274.055 39.3857C274.055 38.8617 274.263 38.3591 274.634 37.9886C275.004 37.6181 275.507 37.4099 276.031 37.4099H314.796V20.9879H283.736C283.212 20.9879 282.709 20.7798 282.338 20.4092C281.968 20.0387 281.76 19.5362 281.76 19.0122C281.76 18.4881 281.968 17.9856 282.338 17.6151C282.709 17.2445 283.212 17.0364 283.736 17.0364H316.772C317.296 17.0364 317.798 17.2445 318.169 17.6151C318.539 17.9856 318.748 18.4881 318.748 19.0122V39.383C318.748 39.6427 318.697 39.8999 318.598 40.1399C318.499 40.38 318.353 40.5981 318.17 40.7818C317.986 40.9656 317.768 41.1113 317.529 41.2108C317.289 41.3102 317.032 41.3614 316.772 41.3614Z" fill="#FDF6F9"/>
<path d="M296.402 61.7317H262.143C261.619 61.7317 261.116 61.5235 260.745 61.153C260.375 60.7825 260.167 60.2799 260.167 59.7559C260.167 59.2319 260.375 58.7294 260.745 58.3588C261.116 57.9883 261.619 57.7801 262.143 57.7801H294.426V41.3615H276.031C275.507 41.3615 275.004 41.1533 274.634 40.7828C274.263 40.4122 274.055 39.9097 274.055 39.3857C274.055 38.8617 274.263 38.3591 274.634 37.9886C275.004 37.6181 275.507 37.4099 276.031 37.4099H296.402C296.926 37.4099 297.428 37.6181 297.799 37.9886C298.169 38.3591 298.378 38.8617 298.378 39.3857V59.7559C298.378 60.2799 298.169 60.7825 297.799 61.153C297.428 61.5235 296.926 61.7317 296.402 61.7317Z" fill="#FDF6F9"/>
<path d="M351.266 61.7317H337.143C336.619 61.7317 336.117 61.5235 335.746 61.153C335.376 60.7825 335.168 60.2799 335.168 59.7559V39.3857C335.168 38.8617 335.376 38.3591 335.746 37.9886C336.117 37.6181 336.619 37.4099 337.143 37.4099H366.544C367.068 37.4099 367.57 37.6181 367.941 37.9886C368.311 38.3591 368.519 38.8617 368.519 39.3857C368.519 39.9097 368.311 40.4122 367.941 40.7828C367.57 41.1533 367.068 41.3615 366.544 41.3615H339.119V57.7801H351.266C351.79 57.7801 352.292 57.9883 352.663 58.3588C353.033 58.7294 353.241 59.2319 353.241 59.7559C353.241 60.2799 353.033 60.7825 352.663 61.153C352.292 61.5235 351.79 61.7317 351.266 61.7317Z" fill="#FDF6F9"/>
</g>
<g style="mix-blend-mode:multiply" opacity="0.23">
<path d="M56.6052 200.475H15.8635C15.3395 200.475 14.8369 200.266 14.4664 199.896C14.0959 199.525 13.8877 199.023 13.8877 198.499C13.8877 197.975 14.0959 197.472 14.4664 197.102C14.8369 196.731 15.3395 196.523 15.8635 196.523H54.6295V178.128C54.6295 177.604 54.8376 177.101 55.2082 176.731C55.5787 176.36 56.0812 176.152 56.6052 176.152C57.1292 176.152 57.6318 176.36 58.0023 176.731C58.3729 177.101 58.581 177.604 58.581 178.128V198.499C58.581 199.023 58.3729 199.525 58.0023 199.896C57.6318 200.266 57.1292 200.475 56.6052 200.475Z" fill="#FDF6F9"/>
<path d="M97.3469 200.475H56.6052C56.0812 200.475 55.5786 200.266 55.2081 199.896C54.8376 199.525 54.6294 199.023 54.6294 198.499V178.128C54.6294 177.604 54.8376 177.101 55.2081 176.731C55.5786 176.36 56.0812 176.152 56.6052 176.152C57.1292 176.152 57.6317 176.36 58.0023 176.731C58.3728 177.101 58.5809 177.604 58.5809 178.128V196.523H97.3469C97.8709 196.523 98.3735 196.731 98.744 197.102C99.1145 197.472 99.3227 197.975 99.3227 198.499C99.3227 199.023 99.1145 199.525 98.744 199.896C98.3735 200.266 97.8709 200.475 97.3469 200.475Z" fill="#FDF6F9"/>
<path d="M76.9761 220.845H36.2343C35.7103 220.845 35.2078 220.637 34.8372 220.267C34.4667 219.896 34.2585 219.394 34.2585 218.87V198.499C34.2585 197.975 34.4667 197.472 34.8372 197.102C35.2078 196.731 35.7103 196.523 36.2343 196.523H76.9761C77.5001 196.523 78.0026 196.731 78.3732 197.102C78.7437 197.472 78.9519 197.975 78.9519 198.499V218.87C78.9519 219.394 78.7437 219.896 78.3732 220.267C78.0026 220.637 77.5001 220.845 76.9761 220.845ZM38.2101 216.894H75.0003V200.474H38.2101V216.894Z" fill="#FDF6F9"/>
<path d="M68.1812 241.216H56.6052C56.0812 241.216 55.5786 241.008 55.2081 240.638C54.8376 240.267 54.6294 239.764 54.6294 239.24V218.87C54.6294 218.346 54.8376 217.843 55.2081 217.472C55.5786 217.102 56.0812 216.894 56.6052 216.894H97.3469C97.8709 216.894 98.3735 217.102 98.744 217.472C99.1145 217.843 99.3227 218.346 99.3227 218.87C99.3227 219.394 99.1145 219.896 98.744 220.267C98.3735 220.637 97.8709 220.845 97.3469 220.845H58.5809V237.265H68.1812C68.7052 237.265 69.2078 237.473 69.5783 237.843C69.9488 238.214 70.157 238.716 70.157 239.24C70.157 239.764 69.9488 240.267 69.5783 240.638C69.2078 241.008 68.7052 241.216 68.1812 241.216Z" fill="#FDF6F9"/>
<path d="M56.6052 241.216H23.5683C23.0443 241.216 22.5418 241.008 22.1712 240.638C21.8007 240.267 21.5926 239.764 21.5926 239.24C21.5926 238.716 21.8007 238.214 22.1712 237.843C22.5418 237.473 23.0443 237.265 23.5683 237.265H54.6295V220.845H15.8635C15.3395 220.845 14.8369 220.637 14.4664 220.267C14.0959 219.896 13.8877 219.394 13.8877 218.87C13.8877 218.346 14.0959 217.843 14.4664 217.472C14.8369 217.102 15.3395 216.894 15.8635 216.894H56.6052C57.1292 216.894 57.6318 217.102 58.0023 217.472C58.3729 217.843 58.581 218.346 58.581 218.87V239.24C58.581 239.764 58.3729 240.267 58.0023 240.638C57.6318 241.008 57.1292 241.216 56.6052 241.216Z" fill="#FDF6F9"/>
<path d="M36.2344 220.845H15.8635C15.3395 220.845 14.8369 220.637 14.4664 220.267C14.0959 219.896 13.8877 219.394 13.8877 218.87C13.8877 218.346 14.0959 217.843 14.4664 217.473C14.8369 217.102 15.3395 216.894 15.8635 216.894H34.2586V200.474H1.97577C1.45177 200.474 0.949219 200.266 0.578689 199.896C0.20816 199.525 0 199.023 0 198.499C0 197.975 0.20816 197.472 0.578689 197.102C0.949219 196.731 1.45177 196.523 1.97577 196.523H36.2344C36.7584 196.523 37.2609 196.731 37.6315 197.102C38.002 197.472 38.2101 197.975 38.2101 198.499V218.87C38.2101 219.394 38.002 219.896 37.6315 220.267C37.2609 220.637 36.7584 220.845 36.2344 220.845Z" fill="#FDF6F9"/>
<path d="M106.376 220.845H76.9761C76.4521 220.845 75.9496 220.637 75.5791 220.267C75.2085 219.896 75.0004 219.394 75.0004 218.87V198.499C75.0004 197.975 75.2085 197.472 75.5791 197.102C75.9496 196.731 76.4521 196.523 76.9761 196.523H91.0983C91.6223 196.523 92.1249 196.731 92.4954 197.102C92.8659 197.472 93.0741 197.975 93.0741 198.499C93.0741 199.023 92.8659 199.525 92.4954 199.896C92.1249 200.266 91.6223 200.474 91.0983 200.474H78.9519V216.894H106.376C106.9 216.894 107.403 217.102 107.773 217.473C108.144 217.843 108.352 218.346 108.352 218.87C108.352 219.394 108.144 219.896 107.773 220.267C107.403 220.637 106.9 220.845 106.376 220.845Z" fill="#FDF6F9"/>
</g>
<g style="mix-blend-mode:multiply" opacity="0.23">
<path d="M509.482 297.169H468.74C468.216 297.169 467.714 296.961 467.343 296.59C466.973 296.22 466.764 295.717 466.764 295.193V274.823C466.764 274.299 466.973 273.796 467.343 273.426C467.714 273.055 468.216 272.847 468.74 272.847C469.264 272.847 469.767 273.055 470.137 273.426C470.508 273.796 470.716 274.299 470.716 274.823V293.217H509.482C510.006 293.217 510.509 293.426 510.879 293.796C511.25 294.167 511.458 294.669 511.458 295.193C511.458 295.717 511.25 296.22 510.879 296.59C510.509 296.961 510.006 297.169 509.482 297.169Z" fill="#FDF6F9"/>
<path d="M468.74 297.169H427.999C427.475 297.169 426.972 296.961 426.602 296.59C426.231 296.22 426.023 295.717 426.023 295.193C426.023 294.669 426.231 294.167 426.602 293.796C426.972 293.426 427.475 293.217 427.999 293.217H466.765V274.823C466.765 274.299 466.973 273.796 467.343 273.426C467.714 273.055 468.216 272.847 468.74 272.847C469.264 272.847 469.767 273.055 470.138 273.426C470.508 273.796 470.716 274.299 470.716 274.823V295.193C470.716 295.717 470.508 296.22 470.138 296.59C469.767 296.961 469.264 297.169 468.74 297.169Z" fill="#FDF6F9"/>
<path d="M489.111 317.54H448.369C447.845 317.54 447.343 317.332 446.972 316.962C446.602 316.591 446.394 316.089 446.394 315.565V295.193C446.394 294.669 446.602 294.166 446.972 293.796C447.343 293.425 447.845 293.217 448.369 293.217H489.111C489.635 293.217 490.138 293.425 490.508 293.796C490.879 294.166 491.087 294.669 491.087 295.193V315.565C491.087 316.089 490.879 316.591 490.508 316.962C490.138 317.332 489.635 317.54 489.111 317.54ZM450.345 313.589H487.135V297.169H450.345V313.589Z" fill="#FDF6F9"/>
<path d="M468.74 337.911H457.164C456.64 337.911 456.138 337.702 455.767 337.332C455.397 336.961 455.189 336.459 455.189 335.935C455.189 335.411 455.397 334.908 455.767 334.538C456.138 334.167 456.64 333.959 457.164 333.959H466.765V317.54H427.999C427.475 317.54 426.972 317.332 426.602 316.962C426.231 316.591 426.023 316.089 426.023 315.565C426.023 315.041 426.231 314.538 426.602 314.168C426.972 313.797 427.475 313.589 427.999 313.589H468.74C469.264 313.589 469.767 313.797 470.138 314.168C470.508 314.538 470.716 315.041 470.716 315.565V335.935C470.716 336.459 470.508 336.961 470.138 337.332C469.767 337.702 469.264 337.911 468.74 337.911Z" fill="#FDF6F9"/>
<path d="M484.012 337.911H468.74C468.216 337.911 467.714 337.702 467.343 337.332C466.973 336.961 466.764 336.459 466.764 335.935V315.565C466.764 315.041 466.973 314.538 467.343 314.168C467.714 313.797 468.216 313.589 468.74 313.589H509.482C510.006 313.589 510.509 313.797 510.879 314.168C511.25 314.538 511.458 315.041 511.458 315.565C511.458 316.089 511.25 316.591 510.879 316.962C510.509 317.332 510.006 317.54 509.482 317.54H470.716V333.959H484.012C484.536 333.959 485.039 334.167 485.409 334.538C485.78 334.908 485.988 335.411 485.988 335.935C485.988 336.459 485.78 336.961 485.409 337.332C485.039 337.702 484.536 337.911 484.012 337.911Z" fill="#FDF6F9"/>
<path d="M509.482 317.54H489.111C488.587 317.54 488.085 317.332 487.714 316.962C487.344 316.591 487.135 316.089 487.135 315.565V295.193C487.135 294.669 487.344 294.166 487.714 293.796C488.085 293.425 488.587 293.217 489.111 293.217H523.369C523.893 293.217 524.396 293.425 524.766 293.796C525.137 294.166 525.345 294.669 525.345 295.193C525.345 295.717 525.137 296.22 524.766 296.59C524.396 296.961 523.893 297.169 523.369 297.169H491.087V313.589H509.482C510.006 313.589 510.509 313.797 510.879 314.168C511.25 314.538 511.458 315.041 511.458 315.565C511.458 316.089 511.25 316.591 510.879 316.962C510.509 317.332 510.006 317.54 509.482 317.54Z" fill="#FDF6F9"/>
<path d="M448.37 317.54H418.969C418.445 317.54 417.942 317.332 417.572 316.962C417.201 316.591 416.993 316.089 416.993 315.565C416.993 315.041 417.201 314.538 417.572 314.168C417.942 313.797 418.445 313.589 418.969 313.589H446.394V297.169H434.247C433.723 297.169 433.22 296.961 432.85 296.59C432.479 296.22 432.271 295.717 432.271 295.193C432.271 294.669 432.479 294.166 432.85 293.796C433.22 293.425 433.723 293.217 434.247 293.217H448.37C448.894 293.217 449.396 293.425 449.767 293.796C450.137 294.166 450.345 294.669 450.345 295.193V315.565C450.345 316.089 450.137 316.591 449.767 316.962C449.396 317.332 448.894 317.54 448.37 317.54Z" fill="#FDF6F9"/>
</g>
<path d="M503.108 382.818H41.3215C40.4482 382.818 39.6106 382.471 38.993 381.853C38.3755 381.236 38.0286 380.398 38.0286 379.525C38.0286 378.652 38.3755 377.814 38.993 377.196C39.6106 376.579 40.4482 376.232 41.3215 376.232H503.108C503.981 376.232 504.819 376.579 505.436 377.196C506.054 377.814 506.401 378.652 506.401 379.525C506.401 380.398 506.054 381.236 505.436 381.853C504.819 382.471 503.981 382.818 503.108 382.818Z" fill="#333333"/>
<path d="M26.3931 382.818H8.06249C7.18914 382.818 6.35156 382.471 5.73401 381.853C5.11646 381.236 4.76953 380.398 4.76953 379.525C4.76953 378.652 5.11646 377.814 5.73401 377.196C6.35156 376.579 7.18914 376.232 8.06249 376.232H26.3931C27.2664 376.232 28.104 376.579 28.7215 377.196C29.3391 377.814 29.686 378.652 29.686 379.525C29.686 380.398 29.3391 381.236 28.7215 381.853C28.104 382.471 27.2664 382.818 26.3931 382.818Z" fill="#333333"/>
<path d="M154.155 379.525H96.3501V366.353H167.474L154.155 379.525Z" fill="#333333"/>
<path d="M240.66 379.525H298.465V366.353H227.341L240.66 379.525Z" fill="#333333"/>
<path d="M315.954 306.352C237.712 322.143 157.103 322.143 78.8611 306.352V240.447C78.8611 233.951 84.6837 227.412 91.9012 226.042C161.688 213.565 233.134 213.565 302.92 226.042C310.131 227.412 315.954 233.951 315.954 240.447V306.352Z" fill="#FFC859"/>
<path d="M93.3041 232.455C162.284 221.632 232.531 221.632 301.511 232.455C303.693 232.809 305.784 233.591 307.662 234.756C309.541 235.922 311.17 237.447 312.457 239.245V237.296C312.457 231.661 306.806 225.99 299.804 224.802C231.969 213.979 162.846 213.979 95.0111 224.802C88.009 225.987 82.3589 231.661 82.3583 237.296V239.245C83.6447 237.447 85.2741 235.922 87.1527 234.756C89.0313 233.591 91.1219 232.809 93.3041 232.455Z" fill="#F9D895"/>
<path d="M177.042 289.644C153.849 291.932 130.486 291.932 107.293 289.644C104.85 289.396 102.571 288.3 100.853 286.544C99.1356 284.789 98.0885 282.487 97.8943 280.039C97.5525 275.772 97.5525 271.484 97.8943 267.217C98.0886 264.769 99.1359 262.467 100.854 260.712C102.571 258.956 104.85 257.86 107.294 257.612C130.487 255.324 153.849 255.324 177.042 257.612C179.486 257.86 181.765 258.956 183.483 260.712C185.2 262.467 186.248 264.769 186.442 267.217C186.784 271.485 186.784 275.772 186.442 280.039C186.247 282.488 185.2 284.79 183.482 286.545C181.764 288.3 179.485 289.397 177.042 289.644Z" fill="#CE5555"/>
<g style="mix-blend-mode:multiply" opacity="0.47">
<path d="M184.911 270.567C184.761 272.977 183.77 275.257 182.112 277.012C180.454 278.767 178.234 279.885 175.837 280.171C153.449 282.459 130.886 282.459 108.498 280.171C106.101 279.884 103.88 278.766 102.222 277.012C100.564 275.257 99.5736 272.976 99.4229 270.567C99.3801 270.008 99.3571 269.451 99.3261 268.892C99.1091 272.606 99.1415 276.33 99.4229 280.039C99.5735 282.448 100.564 284.729 102.222 286.484C103.88 288.239 106.101 289.357 108.498 289.644C130.886 291.932 153.449 291.932 175.837 289.644C178.234 289.357 180.454 288.239 182.112 286.484C183.77 284.729 184.761 282.449 184.911 280.04C185.193 276.33 185.225 272.606 185.008 268.892C184.977 269.45 184.955 270.008 184.911 270.567Z" fill="#CE5555"/>
</g>
<g style="mix-blend-mode:screen" opacity="0.5">
<path d="M97.8944 272.486C98.0887 270.038 99.136 267.736 100.854 265.98C102.571 264.225 104.85 263.128 107.294 262.881C130.487 260.593 153.849 260.593 177.043 262.881C179.486 263.128 181.765 264.225 183.483 265.98C185.2 267.736 186.248 270.038 186.442 272.486C186.543 273.747 186.604 275.005 186.645 276.262C186.748 273.246 186.68 270.226 186.442 267.217C186.248 264.769 185.2 262.467 183.483 260.712C181.765 258.956 179.486 257.86 177.043 257.612C153.849 255.324 130.487 255.324 107.294 257.612C104.85 257.86 102.571 258.956 100.854 260.712C99.136 262.467 98.0887 264.769 97.8944 267.217C97.6565 270.226 97.5886 273.246 97.6909 276.263C97.731 275.007 97.7929 273.747 97.8944 272.486Z" fill="#CE5555"/>
</g>
<path d="M142.167 294.649C130.408 294.649 118.648 294.073 106.97 292.921C103.756 292.603 100.757 291.164 98.4972 288.857C96.2377 286.549 94.8621 283.521 94.6112 280.301C94.253 275.86 94.253 271.397 94.6112 266.955C94.8623 263.736 96.2381 260.707 98.4975 258.4C100.757 256.093 103.756 254.654 106.97 254.335C130.378 252.032 153.957 252.032 177.365 254.335C180.579 254.654 183.578 256.093 185.837 258.4C188.097 260.707 189.473 263.736 189.724 266.955C190.081 271.397 190.081 275.86 189.724 280.301C189.472 283.52 188.097 286.549 185.837 288.856C183.578 291.163 180.579 292.602 177.365 292.92C165.687 294.073 153.927 294.649 142.167 294.649ZM142.167 259.193C130.622 259.193 119.081 259.758 107.616 260.889C105.94 261.057 104.377 261.81 103.199 263.014C102.022 264.219 101.306 265.799 101.176 267.479C100.846 271.572 100.846 275.685 101.176 279.777C101.306 281.457 102.022 283.037 103.199 284.242C104.377 285.447 105.94 286.199 107.616 286.367C130.595 288.628 153.74 288.628 176.718 286.367C178.395 286.199 179.958 285.447 181.135 284.242C182.313 283.037 183.029 281.457 183.159 279.777C183.489 275.685 183.489 271.572 183.159 267.479C183.029 265.799 182.313 264.219 181.135 263.014C179.958 261.81 178.395 261.057 176.718 260.889C165.257 259.758 153.71 259.193 142.167 259.193Z" fill="#333333"/>
<path d="M287.522 289.644C264.328 291.932 240.966 291.932 217.773 289.644C215.33 289.397 213.05 288.3 211.333 286.544C209.615 284.789 208.568 282.487 208.374 280.039C208.032 275.772 208.032 271.484 208.374 267.217C208.568 264.769 209.615 262.467 211.333 260.712C213.05 258.956 215.33 257.86 217.773 257.612C240.966 255.324 264.328 255.324 287.522 257.612C289.965 257.86 292.244 258.957 293.961 260.712C295.679 262.467 296.726 264.769 296.92 267.217C297.262 271.485 297.262 275.772 296.92 280.039C296.726 282.487 295.679 284.789 293.961 286.545C292.244 288.3 289.965 289.396 287.522 289.644Z" fill="#CE5555"/>
<g style="mix-blend-mode:multiply" opacity="0.47">
<path d="M294.571 270.567C294.191 275.613 290.441 279.675 285.671 280.171C263.715 282.459 241.58 282.459 219.624 280.171C214.854 279.675 211.104 275.613 210.723 270.567C210.681 270.008 210.658 269.451 210.629 268.892C210.416 272.606 210.447 276.33 210.723 280.039C211.104 285.084 214.854 289.147 219.624 289.644C241.58 291.932 263.715 291.932 285.671 289.644C290.441 289.147 294.191 285.084 294.571 280.04C294.848 276.33 294.88 272.606 294.667 268.892C294.635 269.45 294.615 270.008 294.571 270.567Z" fill="#CE5555"/>
</g>
<g style="mix-blend-mode:screen" opacity="0.5">
<path d="M208.374 272.486C208.568 270.038 209.615 267.736 211.333 265.98C213.051 264.225 215.33 263.128 217.773 262.881C240.967 260.593 264.329 260.593 287.522 262.881C289.965 263.129 292.244 264.225 293.962 265.981C295.679 267.736 296.726 270.038 296.921 272.486C297.021 273.747 297.083 275.005 297.124 276.262C297.226 273.246 297.159 270.226 296.921 267.217C296.726 264.769 295.679 262.467 293.961 260.712C292.244 258.956 289.965 257.86 287.521 257.612C264.328 255.324 240.966 255.324 217.773 257.612C215.329 257.86 213.05 258.956 211.332 260.712C209.615 262.467 208.567 264.769 208.373 267.217C208.135 270.226 208.067 273.246 208.17 276.263C208.212 275.007 208.274 273.747 208.374 272.486Z" fill="#CE5555"/>
</g>
<path d="M252.647 294.649C240.888 294.649 229.128 294.073 217.45 292.921C214.236 292.603 211.237 291.164 208.978 288.856C206.718 286.549 205.342 283.521 205.091 280.301C204.734 275.86 204.734 271.397 205.091 266.955C205.342 263.736 206.718 260.707 208.978 258.4C211.237 256.093 214.236 254.654 217.45 254.335C240.858 252.032 264.437 252.032 287.845 254.335C291.059 254.654 294.058 256.093 296.318 258.4C298.577 260.707 299.953 263.736 300.204 266.955C300.562 271.397 300.562 275.86 300.204 280.301C299.953 283.521 298.577 286.549 296.317 288.856C294.058 291.163 291.059 292.602 287.845 292.92C276.168 294.073 264.407 294.649 252.647 294.649ZM252.647 259.193C241.102 259.193 229.561 259.758 218.096 260.889C216.42 261.057 214.857 261.81 213.679 263.014C212.502 264.219 211.786 265.799 211.656 267.479C211.326 271.572 211.326 275.685 211.656 279.778C211.786 281.457 212.502 283.037 213.679 284.242C214.857 285.447 216.42 286.199 218.096 286.367C241.075 288.628 264.22 288.628 287.198 286.367C288.875 286.199 290.438 285.447 291.615 284.242C292.793 283.037 293.509 281.457 293.639 279.778C293.969 275.685 293.969 271.572 293.639 267.479C293.509 265.799 292.793 264.219 291.615 263.014C290.438 261.81 288.875 261.057 287.198 260.889C275.737 259.758 264.189 259.193 252.647 259.193Z" fill="#333333"/>
<path d="M197.408 321.488C157.378 321.488 117.447 317.498 78.2085 309.579C77.4642 309.429 76.7948 309.026 76.3136 308.438C75.8324 307.851 75.5691 307.115 75.5682 306.356V240.447C75.5682 232.365 82.6191 224.452 91.2842 222.807C161.46 210.194 233.322 210.192 303.498 222.801C312.197 224.452 319.247 232.365 319.247 240.447V306.356C319.247 307.115 318.984 307.852 318.503 308.44C318.021 309.028 317.352 309.432 316.607 309.583C277.368 317.501 237.437 321.489 197.408 321.488ZM82.1541 303.652C120.116 311.134 158.716 314.901 197.408 314.902C236.1 314.901 274.699 311.134 312.661 303.652V240.447C312.661 235.458 307.919 230.343 302.303 229.277C232.916 216.812 161.862 216.814 92.4756 229.284C86.896 230.343 82.1541 235.458 82.1541 240.447V303.652Z" fill="#333333"/>
<path d="M94.037 290.177H300.778C306.375 290.177 311.743 292.4 315.7 296.358C319.658 300.315 321.881 305.683 321.881 311.28H72.9337C72.9337 305.683 75.1571 300.315 79.1147 296.358C83.0723 292.4 88.44 290.177 94.037 290.177Z" fill="#B2C68B"/>
<g style="mix-blend-mode:multiply" opacity="0.38">
<path d="M321.881 300.728H72.9337V311.28H321.881V300.728Z" fill="#AABC80"/>
</g>
<path d="M321.881 314.573H72.9337C72.0604 314.573 71.2228 314.226 70.6052 313.608C69.9877 312.991 69.6407 312.153 69.6407 311.28C69.6481 304.812 72.2207 298.611 76.7943 294.037C81.3679 289.464 87.5689 286.891 94.0369 286.884H300.778C307.246 286.891 313.447 289.463 318.021 294.037C322.594 298.611 325.167 304.812 325.174 311.28C325.174 312.153 324.827 312.991 324.21 313.608C323.592 314.226 322.755 314.573 321.881 314.573ZM76.5316 307.987H318.283C317.51 303.908 315.339 300.227 312.144 297.577C308.948 294.927 304.929 293.475 300.778 293.469H94.0369C89.8858 293.475 85.8665 294.927 82.6712 297.577C79.4759 300.227 77.3047 303.908 76.5316 307.987Z" fill="#333333"/>
<path d="M73.5923 311.28H321.223C322.62 311.28 323.96 311.835 324.948 312.823C325.936 313.811 326.491 315.151 326.491 316.549V366.353H68.3236V316.549C68.3236 315.151 68.8787 313.811 69.8668 312.823C70.8549 311.835 72.195 311.28 73.5923 311.28Z" fill="#AA7D5E"/>
<path d="M73.5923 311.28H321.223C322.62 311.28 323.96 311.835 324.948 312.823C325.936 313.811 326.491 315.151 326.491 316.549V366.353H68.3236V316.549C68.3236 315.151 68.8787 313.811 69.8668 312.823C70.8549 311.835 72.195 311.28 73.5923 311.28Z" fill="#FFC758"/>
<g style="mix-blend-mode:multiply" opacity="0.96">
<path d="M326.491 358.669H68.3236V366.353H326.491V358.669Z" fill="#FFC758"/>
</g>
<path d="M73.5923 311.28H321.223C322.62 311.28 323.96 311.835 324.948 312.823C325.936 313.811 326.491 315.151 326.491 316.549V318.195H68.3236V316.549C68.3236 315.151 68.8787 313.811 69.8668 312.823C70.8549 311.835 72.195 311.28 73.5923 311.28Z" fill="#F9D895"/>
<path d="M326.491 369.646H68.3236C67.4502 369.646 66.6127 369.299 65.9951 368.682C65.3776 368.064 65.0306 367.226 65.0306 366.353V316.549C65.0333 314.279 65.9361 312.102 67.5412 310.497C69.1462 308.892 71.3224 307.989 73.5923 307.987H321.223C323.493 307.989 325.669 308.892 327.274 310.497C328.879 312.102 329.782 314.279 329.784 316.549V366.353C329.784 367.226 329.437 368.064 328.82 368.682C328.202 369.299 327.365 369.646 326.491 369.646ZM71.6166 363.06H323.198V316.549C323.198 316.024 322.99 315.522 322.62 315.151C322.249 314.781 321.747 314.573 321.223 314.573H73.5923C73.0683 314.573 72.5658 314.781 72.1952 315.151C71.8247 315.522 71.6166 316.024 71.6166 316.549V363.06Z" fill="#333333"/>
<path d="M154.155 382.818H96.3501C95.4767 382.818 94.6392 382.471 94.0216 381.854C93.4041 381.236 93.0571 380.398 93.0571 379.525V366.353C93.0571 365.48 93.4041 364.642 94.0216 364.025C94.6392 363.407 95.4767 363.06 96.3501 363.06H167.474C168.127 363.06 168.765 363.254 169.307 363.618C169.85 363.981 170.272 364.498 170.52 365.101C170.768 365.705 170.831 366.369 170.701 367.009C170.571 367.649 170.254 368.235 169.79 368.695L156.471 381.866C155.854 382.476 155.022 382.818 154.155 382.818ZM99.643 376.232H152.802L159.462 369.646H99.643V376.232Z" fill="#333333"/>
<path d="M298.465 382.818H240.66C239.793 382.818 238.961 382.476 238.344 381.866L225.025 368.695C224.561 368.235 224.244 367.649 224.114 367.009C223.984 366.369 224.047 365.705 224.295 365.101C224.543 364.498 224.966 363.981 225.508 363.618C226.05 363.254 226.688 363.06 227.341 363.06H298.465C299.338 363.06 300.176 363.407 300.793 364.025C301.411 364.642 301.758 365.48 301.758 366.353V379.525C301.758 380.398 301.411 381.236 300.793 381.854C300.176 382.471 299.338 382.818 298.465 382.818ZM242.013 376.232H295.172V369.646H235.354L242.013 376.232Z" fill="#333333"/>
<path d="M203.547 72.4897H131.102V83.0272H203.547V72.4897Z" fill="#6A6A68"/>
<path d="M203.547 86.3201H131.102C130.228 86.3201 129.391 85.9732 128.773 85.3557C128.156 84.7381 127.809 83.9005 127.809 83.0272V72.4897C127.809 71.6164 128.156 70.7788 128.773 70.1613C129.391 69.5437 130.228 69.1968 131.102 69.1968H203.547C204.42 69.1968 205.258 69.5437 205.875 70.1613C206.493 70.7788 206.84 71.6164 206.84 72.4897V83.0272C206.84 83.9005 206.493 84.7381 205.875 85.3557C205.258 85.9732 204.42 86.3201 203.547 86.3201ZM134.395 79.7342H200.254V75.7827H134.395V79.7342Z" fill="#333333"/>
<path d="M152.839 75.7827H137.476C136.602 75.7827 135.765 75.4357 135.147 74.8182C134.53 74.2006 134.183 73.3631 134.183 72.4897V17.3432C134.183 16.4699 134.53 15.6323 135.147 15.0148C135.765 14.3972 136.602 14.0503 137.476 14.0503H152.843C153.716 14.0503 154.554 14.3972 155.171 15.0148C155.789 15.6323 156.136 16.4699 156.136 17.3432V72.4897C156.136 72.9224 156.05 73.3509 155.885 73.7506C155.719 74.1504 155.476 74.5135 155.17 74.8194C154.864 75.1252 154.5 75.3677 154.1 75.533C153.701 75.6983 153.272 75.7831 152.839 75.7827ZM140.769 69.1968H149.55V20.6362H140.769V69.1968Z" fill="#333333"/>
<g style="mix-blend-mode:multiply" opacity="0.38">
<path d="M152.839 17.3433H137.472V72.4897H152.839V17.3433Z" fill="#629EC0"/>
</g>
<path d="M168.206 3.2937H152.839V72.4899H168.206V3.2937Z" fill="#FFC859"/>
<path d="M168.207 75.7828H152.84C151.966 75.7828 151.129 75.4358 150.511 74.8183C149.894 74.2007 149.547 73.3632 149.547 72.4898V3.29296C149.547 2.41961 149.894 1.58204 150.511 0.964492C151.129 0.346943 151.966 0 152.84 0H168.207C169.08 0 169.917 0.346943 170.535 0.964492C171.153 1.58204 171.499 2.41961 171.499 3.29296V72.4898C171.499 73.3632 171.153 74.2007 170.535 74.8183C169.917 75.4358 169.08 75.7828 168.207 75.7828ZM156.133 69.1969H164.914V6.58591H156.133V69.1969Z" fill="#333333"/>
<path d="M181.867 13.1491L168.207 18.6091L188.675 69.8165L202.335 64.3564L181.867 13.1491Z" fill="#FF7373"/>
<path d="M188.675 73.1122C188.017 73.1119 187.374 72.9144 186.829 72.5453C186.285 72.1761 185.863 71.6521 185.619 71.041L165.151 19.8335C164.99 19.4319 164.91 19.0026 164.916 18.5701C164.921 18.1376 165.012 17.7104 165.182 17.3129C165.352 16.9153 165.6 16.5553 165.909 16.2532C166.219 15.9512 166.585 15.7132 166.987 15.5527L180.647 10.093C181.049 9.93231 181.478 9.85236 181.91 9.85767C182.343 9.86298 182.77 9.95344 183.168 10.1239C183.565 10.2943 183.925 10.5414 184.227 10.8511C184.529 11.1607 184.767 11.5268 184.928 11.9284L205.392 63.1379C205.553 63.5395 205.633 63.9688 205.628 64.4013C205.622 64.8338 205.532 65.261 205.361 65.6585C205.191 66.056 204.944 66.4161 204.634 66.7181C204.325 67.0201 203.958 67.2582 203.557 67.4187L189.896 72.8784C189.508 73.0332 189.093 73.1125 188.675 73.1122ZM172.486 20.446L190.509 65.5384L198.054 62.5227L180.031 17.4316L172.486 20.446Z" fill="#333333"/>
<path d="M224.143 98.1313H156.907V165.044H224.143V98.1313Z" fill="#F9F9F9"/>
<path d="M224.146 168.336H156.904C156.031 168.336 155.193 167.989 154.575 167.372C153.958 166.754 153.611 165.917 153.611 165.043V98.1306C153.611 97.2573 153.958 96.4197 154.575 95.8021C155.193 95.1846 156.031 94.8376 156.904 94.8376H224.146C225.019 94.8376 225.857 95.1846 226.475 95.8021C227.092 96.4197 227.439 97.2573 227.439 98.1306V165.043C227.439 165.917 227.092 166.754 226.475 167.372C225.857 167.989 225.019 168.336 224.146 168.336ZM160.203 161.751H220.853V101.424H160.197L160.203 161.751Z" fill="#333333"/>
<path d="M216.899 157.8V105.376H164.151V157.8H216.899Z" fill="#B7F2A7"/>
<path d="M287.328 49.5708H236.583V116.484H287.328V49.5708Z" fill="#F9F9F9"/>
<path d="M287.329 119.777H236.583C235.709 119.777 234.872 119.43 234.254 118.812C233.636 118.195 233.29 117.357 233.29 116.484V49.5708C233.29 48.6974 233.636 47.8599 234.254 47.2423C234.872 46.6248 235.709 46.2778 236.583 46.2778H287.329C288.202 46.2778 289.04 46.6248 289.657 47.2423C290.275 47.8599 290.622 48.6974 290.622 49.5708V116.484C290.622 116.916 290.537 117.344 290.371 117.744C290.206 118.143 289.963 118.506 289.657 118.812C289.352 119.118 288.989 119.36 288.589 119.526C288.19 119.691 287.761 119.777 287.329 119.777ZM239.875 113.191H284.036V52.8637H239.875V113.191Z" fill="#333333"/>
<path d="M280.085 109.239V56.8152H243.828V109.239H280.085Z" fill="#9FD3ED"/>
<path d="M305.769 131.588H236.583V183.397H305.769V131.588Z" fill="#F9F9F9"/>
<path d="M305.769 186.69H236.583C235.709 186.69 234.872 186.343 234.254 185.725C233.636 185.108 233.29 184.27 233.29 183.397V131.588C233.29 130.715 233.636 129.877 234.254 129.259C234.872 128.642 235.709 128.295 236.583 128.295H305.769C306.643 128.295 307.48 128.642 308.098 129.259C308.715 129.877 309.062 130.715 309.062 131.588V183.397C309.062 184.27 308.715 185.108 308.098 185.725C307.48 186.343 306.643 186.69 305.769 186.69ZM239.875 180.104H302.477V134.881H239.875V180.104Z" fill="#333333"/>
<path d="M298.525 176.153V138.832H243.827V176.153H298.525Z" fill="#F97D7D"/>
<path d="M437.932 79.5878L413.097 54.7528C407.944 49.6002 399.59 49.6002 394.437 54.7528L369.602 79.5878C364.449 84.7405 364.449 93.0946 369.602 98.2473L394.437 123.082C399.59 128.235 407.944 128.235 413.097 123.082L437.932 98.2473C443.084 93.0946 443.084 84.7405 437.932 79.5878Z" fill="#F9F9F9"/>
<path d="M397.591 61.0302C399.309 59.5527 401.5 58.7403 403.767 58.7403C406.033 58.7403 408.224 59.5527 409.943 61.0302L442.885 90.6385C442.817 87.2089 441.391 83.9462 438.921 81.5658L413.368 56.7309C410.787 54.2512 407.347 52.8662 403.768 52.8662C400.189 52.8662 396.749 54.2512 394.168 56.7309L368.615 81.5658C366.145 83.9462 364.72 87.2089 364.651 90.6385L397.591 61.0302Z" fill="#BFBFBF"/>
<path d="M403.766 130.232C401.602 130.236 399.457 129.812 397.457 128.984C395.456 128.157 393.639 126.942 392.109 125.41L367.275 100.576C364.188 97.4814 362.454 93.2892 362.454 88.9185C362.454 84.5478 364.188 80.3556 367.275 77.2614L392.109 52.426C395.204 49.3392 399.396 47.6057 403.766 47.6057C408.137 47.6057 412.329 49.3392 415.424 52.426L440.258 77.2614C443.35 80.3531 445.087 84.5463 445.087 88.9185C445.087 93.2907 443.35 97.4839 440.258 100.576L415.424 125.41C413.894 126.942 412.076 128.157 410.076 128.984C408.075 129.811 405.931 130.235 403.766 130.232ZM396.763 120.753C398.622 122.607 401.14 123.649 403.765 123.649C406.39 123.649 408.908 122.607 410.767 120.753L435.601 95.9186C437.458 94.0617 438.501 91.5434 438.501 88.9175C438.501 86.2916 437.458 83.7733 435.601 81.9163L410.769 57.0789C408.91 55.2249 406.392 54.1838 403.767 54.1838C401.142 54.1838 398.624 55.2249 396.765 57.0789L371.93 81.9144C370.076 83.7727 369.035 86.2906 369.035 88.9155C369.035 91.5405 370.076 94.0583 371.93 95.9167L396.763 120.753Z" fill="#333333"/>
<path d="M403.767 62.321C403.243 62.321 402.741 62.1129 402.37 61.7423C402 61.3718 401.792 60.8693 401.792 60.3453V55.176C401.792 54.652 402 54.1494 402.37 53.7789C402.741 53.4084 403.243 53.2002 403.767 53.2002C404.291 53.2002 404.794 53.4084 405.164 53.7789C405.535 54.1494 405.743 54.652 405.743 55.176V60.3453C405.743 60.8693 405.535 61.3718 405.164 61.7423C404.794 62.1129 404.291 62.321 403.767 62.321Z" fill="#333333"/>
<path d="M403.767 124.634C403.243 124.634 402.741 124.426 402.37 124.055C402 123.685 401.792 123.182 401.792 122.658V117.489C401.792 116.965 402 116.462 402.37 116.092C402.741 115.721 403.243 115.513 403.767 115.513C404.291 115.513 404.794 115.721 405.164 116.092C405.535 116.462 405.743 116.965 405.743 117.489V122.658C405.743 123.182 405.535 123.685 405.164 124.055C404.794 124.426 404.291 124.634 403.767 124.634Z" fill="#333333"/>
<path d="M437.507 90.8927H432.338C431.814 90.8927 431.312 90.6845 430.941 90.314C430.57 89.9435 430.362 89.4409 430.362 88.9169C430.362 88.3929 430.57 87.8904 430.941 87.5198C431.312 87.1493 431.814 86.9412 432.338 86.9412H437.507C438.031 86.9412 438.534 87.1493 438.904 87.5198C439.275 87.8904 439.483 88.3929 439.483 88.9169C439.483 89.4409 439.275 89.9435 438.904 90.314C438.534 90.6845 438.031 90.8927 437.507 90.8927Z" fill="#333333"/>
<path d="M375.196 90.8927H370.024C369.5 90.8927 368.998 90.6845 368.627 90.314C368.257 89.9435 368.049 89.4409 368.049 88.9169C368.049 88.3929 368.257 87.8904 368.627 87.5198C368.998 87.1493 369.5 86.9412 370.024 86.9412H375.194C375.718 86.9412 376.22 87.1493 376.591 87.5198C376.961 87.8904 377.169 88.3929 377.169 88.9169C377.169 89.4409 376.961 89.9435 376.591 90.314C376.22 90.6845 375.718 90.8927 375.194 90.8927H375.196Z" fill="#333333"/>
<path d="M403.766 91.5513C403.101 91.5523 402.459 91.3001 401.972 90.8459L393.681 83.1338C393.428 82.8982 393.224 82.6149 393.08 82.3002C392.936 81.9855 392.855 81.6456 392.843 81.2998C392.831 80.9541 392.886 80.6092 393.007 80.285C393.128 79.9608 393.311 79.6635 393.547 79.4102C393.783 79.1569 394.066 78.9524 394.381 78.8086C394.695 78.6647 395.035 78.5843 395.381 78.5718C395.727 78.5593 396.072 78.6151 396.396 78.7359C396.72 78.8567 397.017 79.0401 397.271 79.2758L405.562 86.9879C405.949 87.3484 406.219 87.8172 406.337 88.3333C406.454 88.8494 406.413 89.3889 406.219 89.8814C406.025 90.3739 405.688 90.7966 405.25 91.0945C404.813 91.3924 404.296 91.5515 403.766 91.5513Z" fill="#333333"/>
<path d="M403.766 91.5138C403.463 91.5135 403.167 91.4299 402.909 91.2721C402.651 91.1144 402.441 90.8887 402.303 90.6196C402.165 90.3506 402.103 90.0487 402.125 89.7471C402.148 89.4455 402.252 89.1558 402.428 88.9097L414.815 71.5855C414.94 71.407 415.099 71.255 415.282 71.1383C415.466 71.0216 415.671 70.9425 415.886 70.9056C416.101 70.8687 416.32 70.8748 416.533 70.9234C416.745 70.9721 416.945 71.0623 417.122 71.189C417.3 71.3156 417.45 71.4762 417.565 71.6613C417.679 71.8464 417.756 72.0524 417.791 72.2674C417.825 72.4824 417.817 72.7021 417.766 72.9138C417.715 73.1255 417.622 73.325 417.493 73.5007L405.106 90.8249C404.954 91.0384 404.753 91.2123 404.52 91.3321C404.286 91.452 404.028 91.5143 403.766 91.5138Z" fill="#333333"/>
<path d="M404.411 92.9754C406.653 92.9754 408.469 91.1584 408.469 88.9171C408.469 86.6758 406.653 84.8589 404.411 84.8589C402.17 84.8589 400.353 86.6758 400.353 88.9171C400.353 91.1584 402.17 92.9754 404.411 92.9754Z" fill="#333333"/>
<path d="M446.356 281.887H352.836V367.504H446.356V281.887Z" fill="#996447"/>
<path d="M438.453 321.432V289.326H360.739V321.432H438.453Z" fill="#AA7D5E"/>
<path d="M438.453 360.066V327.959H360.739V360.066H438.453Z" fill="#AA7D5E"/>
<path d="M438.453 332.871V327.959H360.739V332.871H438.453Z" fill="#BF9E86"/>
<path d="M446.355 370.797H352.835C351.961 370.797 351.124 370.45 350.506 369.833C349.889 369.215 349.542 368.378 349.542 367.504V281.887C349.542 281.014 349.889 280.177 350.506 279.559C351.124 278.941 351.961 278.594 352.835 278.594H446.355C447.228 278.594 448.066 278.941 448.683 279.559C449.301 280.177 449.648 281.014 449.648 281.887V367.504C449.648 368.378 449.301 369.215 448.683 369.833C448.066 370.45 447.228 370.797 446.355 370.797ZM356.128 364.211H443.062V285.18H356.128V364.211Z" fill="#333333"/>
<path d="M438.453 294.237V289.326H360.739V294.237H438.453Z" fill="#BF9E86"/>
<path d="M438.452 323.408H360.738C360.214 323.408 359.711 323.2 359.341 322.829C358.97 322.459 358.762 321.956 358.762 321.432V289.326C358.762 288.802 358.97 288.299 359.341 287.929C359.711 287.558 360.214 287.35 360.738 287.35H438.452C438.976 287.35 439.478 287.558 439.849 287.929C440.219 288.299 440.428 288.802 440.428 289.326V321.432C440.428 321.956 440.219 322.459 439.849 322.829C439.478 323.2 438.976 323.408 438.452 323.408ZM362.714 319.456H436.476V291.301H362.714V319.456Z" fill="#333333"/>
<path d="M438.452 362.041H360.738C360.214 362.041 359.711 361.833 359.341 361.463C358.97 361.092 358.762 360.59 358.762 360.066V327.957C358.762 327.433 358.97 326.931 359.341 326.56C359.711 326.19 360.214 325.981 360.738 325.981H438.452C438.976 325.981 439.478 326.19 439.849 326.56C440.219 326.931 440.428 327.433 440.428 327.957V360.064C440.428 360.323 440.377 360.58 440.278 360.82C440.179 361.06 440.033 361.278 439.85 361.462C439.666 361.646 439.448 361.791 439.208 361.891C438.968 361.99 438.711 362.041 438.452 362.041ZM362.714 358.09H436.476V329.933H362.714V358.09Z" fill="#333333"/>
<path d="M425.28 276.263C424.232 276.263 423.227 275.846 422.486 275.105C421.745 274.364 421.328 273.359 421.328 272.311V224.92C421.328 213.042 412.367 203.379 401.351 203.379C390.336 203.379 381.374 213.042 381.374 224.92V228.625C381.374 229.673 380.957 230.678 380.216 231.419C379.475 232.16 378.47 232.576 377.422 232.576C376.374 232.576 375.369 232.16 374.628 231.419C373.887 230.678 373.47 229.673 373.47 228.625V224.92C373.47 208.685 385.978 195.476 401.351 195.476C416.725 195.476 429.231 208.687 429.231 224.92V272.311C429.231 273.359 428.815 274.364 428.074 275.105C427.333 275.846 426.328 276.263 425.28 276.263Z" fill="#333333"/>
<path d="M435.38 270.033H402.559V281.888H435.38V270.033Z" fill="#B67DBC"/>
<g style="mix-blend-mode:screen" opacity="0.44">
<path d="M435.38 270.033H402.559V275.385H435.38V270.033Z" fill="#B67DBC"/>
</g>
<path d="M435.379 285.181H402.559C401.685 285.181 400.848 284.834 400.23 284.216C399.613 283.599 399.266 282.761 399.266 281.888V270.033C399.266 269.16 399.613 268.322 400.23 267.704C400.848 267.087 401.685 266.74 402.559 266.74H435.379C436.253 266.74 437.09 267.087 437.708 267.704C438.325 268.322 438.672 269.16 438.672 270.033V281.888C438.672 282.761 438.325 283.599 437.708 284.216C437.09 284.834 436.253 285.181 435.379 285.181ZM405.852 278.595H432.087V273.326H405.852V278.595Z" fill="#333333"/>
<path d="M395.018 248.695C395.619 246.227 395.921 243.695 395.917 241.155C395.917 227.641 387.637 216.684 377.422 216.684C367.207 216.684 358.928 227.641 358.928 241.155C358.924 243.695 359.226 246.227 359.826 248.695H395.018Z" fill="#9A5BA2"/>
<path d="M382.753 230.005C382.78 225.453 381.741 220.958 379.72 216.879C378.961 216.751 378.192 216.685 377.422 216.682C367.208 216.682 358.928 227.638 358.928 241.152C358.924 243.693 359.226 246.224 359.826 248.692H375.892C380.095 244.145 382.753 237.462 382.753 230.005Z" fill="#B67DBC"/>
<path d="M395.019 251.988H359.826C359.089 251.988 358.373 251.741 357.793 251.285C357.213 250.83 356.803 250.193 356.628 249.477C355.965 246.753 355.632 243.959 355.635 241.155C355.635 225.846 365.409 213.391 377.423 213.391C389.436 213.391 399.211 225.846 399.211 241.155C399.214 243.959 398.88 246.753 398.218 249.477C398.043 250.193 397.633 250.83 397.053 251.285C396.473 251.741 395.757 251.988 395.019 251.988ZM362.534 245.402H392.312C392.521 243.996 392.625 242.576 392.625 241.155C392.625 229.477 385.805 219.977 377.423 219.977C369.04 219.977 362.221 229.477 362.221 241.155C362.22 242.576 362.325 243.996 362.534 245.402Z" fill="#333333"/>
<g style="mix-blend-mode:hard-light">
<path d="M411.012 300.769H388.18V309.989H411.012V300.769Z" fill="#FDF6F9"/>
</g>
<path d="M411.012 311.965H388.18C387.656 311.965 387.154 311.757 386.783 311.386C386.413 311.016 386.205 310.513 386.205 309.989V300.769C386.205 300.245 386.413 299.742 386.783 299.372C387.154 299.001 387.656 298.793 388.18 298.793H411.012C411.536 298.793 412.038 299.001 412.409 299.372C412.779 299.742 412.988 300.245 412.988 300.769V309.989C412.988 310.513 412.779 311.016 412.409 311.386C412.038 311.757 411.536 311.965 411.012 311.965ZM390.156 308.013H409.036V302.745H390.156V308.013Z" fill="#333333"/>
<g style="mix-blend-mode:hard-light">
<path d="M411.012 339.402H388.18V348.623H411.012V339.402Z" fill="#FDF6F9"/>
</g>
<path d="M411.012 350.598H388.18C387.656 350.598 387.154 350.39 386.783 350.02C386.413 349.649 386.205 349.147 386.205 348.623V339.402C386.205 338.878 386.413 338.376 386.783 338.005C387.154 337.635 387.656 337.427 388.18 337.427H411.012C411.536 337.427 412.038 337.635 412.409 338.005C412.779 338.376 412.988 338.878 412.988 339.402V348.623C412.988 349.147 412.779 349.649 412.409 350.02C412.038 350.39 411.536 350.598 411.012 350.598ZM390.156 346.647H409.036V341.378H390.156V346.647Z" fill="#333333"/>
<path d="M379.618 379.525H361.178V367.504H390.156L379.618 379.525Z" fill="#333333"/>
<path d="M379.619 382.818H361.178C360.305 382.818 359.467 382.471 358.85 381.853C358.232 381.236 357.885 380.398 357.885 379.525V367.504C357.885 366.631 358.232 365.793 358.85 365.176C359.467 364.558 360.305 364.211 361.178 364.211H390.156C390.79 364.211 391.41 364.393 391.942 364.736C392.475 365.079 392.897 365.569 393.158 366.146C393.42 366.723 393.509 367.363 393.416 367.989C393.322 368.616 393.051 369.202 392.632 369.678L382.095 381.698C381.786 382.05 381.405 382.332 380.978 382.526C380.551 382.719 380.087 382.818 379.619 382.818ZM364.471 376.232H378.125L382.889 370.797H364.471V376.232Z" fill="#333333"/>
<path d="M419.574 379.525H438.014V367.504H409.036L419.574 379.525Z" fill="#333333"/>
<path d="M438.014 382.818H419.573C419.105 382.818 418.641 382.719 418.214 382.526C417.787 382.332 417.406 382.05 417.097 381.698L406.56 369.678C406.142 369.202 405.87 368.616 405.776 367.989C405.683 367.363 405.773 366.723 406.034 366.146C406.295 365.569 406.717 365.079 407.25 364.736C407.782 364.393 408.402 364.211 409.036 364.211H438.014C438.887 364.211 439.725 364.558 440.342 365.176C440.96 365.793 441.307 366.631 441.307 367.504V379.525C441.307 380.398 440.96 381.236 440.342 381.853C439.725 382.471 438.887 382.818 438.014 382.818ZM421.065 376.232H434.72V370.797H416.301L421.065 376.232Z" fill="#333333"/>
<g style="mix-blend-mode:screen" opacity="0.44">
<path d="M399.137 228.224C399.766 226.831 399.381 225.299 398.279 224.802C397.177 224.305 395.774 225.031 395.146 226.424C394.518 227.816 394.902 229.348 396.005 229.845C397.107 230.342 398.509 229.616 399.137 228.224Z" fill="#B67DBC"/>
</g>
<path d="M170.076 134.661C169.816 134.661 169.561 134.584 169.345 134.439C169.128 134.294 168.959 134.088 168.86 133.848C168.76 133.607 168.734 133.342 168.785 133.087C168.835 132.831 168.961 132.597 169.145 132.412L187.157 114.4C187.406 114.16 187.739 114.027 188.084 114.03C188.429 114.033 188.76 114.172 189.004 114.416C189.248 114.66 189.387 114.991 189.39 115.336C189.393 115.681 189.26 116.014 189.02 116.263L171.007 134.275C170.885 134.398 170.74 134.495 170.58 134.561C170.421 134.627 170.249 134.661 170.076 134.661Z" fill="#333333"/>
<path d="M186.277 132.905C186.017 132.905 185.762 132.828 185.546 132.683C185.329 132.538 185.16 132.333 185.061 132.092C184.961 131.851 184.935 131.587 184.986 131.331C185.037 131.076 185.162 130.841 185.346 130.657L201.602 114.4C201.851 114.16 202.183 114.027 202.529 114.03C202.874 114.033 203.204 114.172 203.449 114.416C203.693 114.66 203.831 114.991 203.834 115.336C203.837 115.681 203.705 116.014 203.465 116.263L187.206 132.519C186.96 132.766 186.626 132.904 186.277 132.905Z" fill="#333333"/>
<path d="M173.646 145.533C173.386 145.533 173.131 145.455 172.915 145.311C172.698 145.166 172.529 144.96 172.43 144.72C172.33 144.479 172.304 144.214 172.355 143.959C172.405 143.703 172.531 143.469 172.715 143.284L179.34 136.659C179.587 136.412 179.922 136.273 180.272 136.273C180.621 136.273 180.956 136.412 181.203 136.659C181.45 136.906 181.589 137.241 181.589 137.59C181.589 137.939 181.451 138.274 181.204 138.521L174.577 145.147C174.455 145.27 174.31 145.367 174.15 145.433C173.99 145.499 173.819 145.533 173.646 145.533Z" fill="#333333"/>
<path d="M251.631 82.0611C251.371 82.061 251.116 81.9837 250.9 81.839C250.683 81.6942 250.514 81.4885 250.415 81.2479C250.315 81.0072 250.289 80.7424 250.34 80.487C250.391 80.2315 250.516 79.9968 250.7 79.8126L262.994 67.5187C263.116 67.3964 263.262 67.2994 263.421 67.2332C263.581 67.1671 263.753 67.133 263.926 67.1331C264.098 67.1331 264.27 67.1672 264.43 67.2334C264.589 67.2996 264.735 67.3967 264.857 67.519C264.979 67.6414 265.076 67.7866 265.142 67.9464C265.208 68.1062 265.243 68.2775 265.243 68.4505C265.242 68.6235 265.208 68.7948 265.142 68.9546C265.076 69.1144 264.979 69.2596 264.857 69.3818L252.563 81.6758C252.316 81.9226 251.981 82.0612 251.631 82.0611Z" fill="#333333"/>
<path d="M270.029 79.0758C269.769 79.0758 269.514 78.9985 269.298 78.8538C269.081 78.709 268.912 78.5033 268.813 78.2627C268.713 78.022 268.687 77.7572 268.738 77.5018C268.788 77.2463 268.914 77.0116 269.098 76.8274L273.84 72.0856C274.088 71.8456 274.421 71.7129 274.766 71.7159C275.112 71.7189 275.442 71.8574 275.686 72.1016C275.931 72.3458 276.069 72.6762 276.072 73.0216C276.075 73.3669 275.942 73.6996 275.702 73.9481L270.961 78.6899C270.714 78.9369 270.379 79.0758 270.029 79.0758Z" fill="#333333"/>
<path d="M249.656 99.4486C249.395 99.4486 249.141 99.3713 248.924 99.2266C248.708 99.0818 248.539 98.8761 248.439 98.6355C248.339 98.3948 248.313 98.13 248.364 97.8746C248.415 97.6191 248.54 97.3844 248.725 97.2002L263.829 82.0961C264.078 81.8561 264.41 81.7234 264.756 81.7264C265.101 81.7294 265.432 81.8679 265.676 82.1121C265.92 82.3563 266.059 82.6867 266.062 83.0321C266.065 83.3774 265.932 83.7101 265.692 83.9586L250.587 99.0627C250.465 99.1853 250.32 99.2825 250.16 99.3487C250 99.4149 249.829 99.4489 249.656 99.4486Z" fill="#333333"/>
<path d="M260.364 169.166C260.103 169.166 259.849 169.088 259.632 168.944C259.416 168.799 259.247 168.593 259.147 168.353C259.047 168.112 259.021 167.847 259.072 167.592C259.123 167.336 259.248 167.101 259.433 166.917L281.66 144.69C281.908 144.45 282.241 144.317 282.586 144.32C282.932 144.323 283.262 144.462 283.506 144.706C283.751 144.95 283.889 145.28 283.892 145.626C283.895 145.971 283.762 146.304 283.522 146.552L261.295 168.78C261.048 169.027 260.713 169.166 260.364 169.166Z" fill="#333333"/>
<path d="M256.944 158.809C256.684 158.809 256.429 158.732 256.212 158.587C255.996 158.442 255.827 158.237 255.727 157.996C255.628 157.755 255.602 157.491 255.652 157.235C255.703 156.98 255.829 156.745 256.013 156.561L266.033 146.54C266.281 146.3 266.614 146.167 266.959 146.17C267.305 146.173 267.635 146.311 267.879 146.556C268.123 146.8 268.262 147.13 268.265 147.476C268.268 147.821 268.135 148.154 267.895 148.402L257.873 158.423C257.627 158.67 257.293 158.809 256.944 158.809Z" fill="#333333"/>
<path d="M173.46 35.047C172.7 35.0479 171.963 34.7856 171.374 34.3047C170.785 33.8238 170.38 33.1539 170.229 32.4087C170.078 31.6635 170.19 30.889 170.545 30.2166C170.9 29.5442 171.476 29.0154 172.177 28.7199L185.73 22.9901C186.534 22.6501 187.441 22.6435 188.25 22.9718C189.06 23.3002 189.705 23.9366 190.045 24.741C190.386 25.5454 190.392 26.452 190.064 27.2613C189.735 28.0706 189.099 28.7163 188.295 29.0564L174.741 34.7862C174.336 34.9578 173.901 35.0465 173.46 35.047Z" fill="#333333"/>
<path d="M168.207 24.0505H152.84C151.966 24.0505 151.129 23.7036 150.511 23.086C149.894 22.4685 149.547 21.6309 149.547 20.7576C149.547 19.8842 149.894 19.0466 150.511 18.4291C151.129 17.8115 151.966 17.4646 152.84 17.4646H168.207C169.08 17.4646 169.917 17.8115 170.535 18.4291C171.153 19.0466 171.499 19.8842 171.499 20.7576C171.499 21.6309 171.153 22.4685 170.535 23.086C169.917 23.7036 169.08 24.0505 168.207 24.0505Z" fill="#333333"/>
<path d="M152.839 33.0217H137.476C136.602 33.0217 135.765 32.6748 135.147 32.0572C134.53 31.4397 134.183 30.6021 134.183 29.7287C134.183 28.8554 134.53 28.0178 135.147 27.4003C135.765 26.7827 136.602 26.4358 137.476 26.4358H152.843C153.716 26.4358 154.554 26.7827 155.171 27.4003C155.789 28.0178 156.136 28.8554 156.136 29.7287C156.136 30.6021 155.789 31.4397 155.171 32.0572C154.554 32.6748 153.716 33.0217 152.843 33.0217H152.839Z" fill="#333333"/>
<path d="M94.7027 172.859H22.2577V183.397H94.7027V172.859Z" fill="#6A6A68"/>
<path d="M94.7028 186.69H22.2578C21.3845 186.69 20.5469 186.343 19.9293 185.725C19.3118 185.107 18.9648 184.27 18.9648 183.397V172.859C18.9648 171.986 19.3118 171.148 19.9293 170.531C20.5469 169.913 21.3845 169.566 22.2578 169.566H94.7028C95.5762 169.566 96.4137 169.913 97.0313 170.531C97.6488 171.148 97.9958 171.986 97.9958 172.859V183.397C97.9958 184.27 97.6488 185.107 97.0313 185.725C96.4137 186.343 95.5762 186.69 94.7028 186.69ZM25.5508 180.104H91.4099V176.152H25.5508V180.104Z" fill="#333333"/>
<path d="M58.4652 100.392C58.0286 100.392 57.6098 100.219 57.301 99.91C56.9922 99.6013 56.8188 99.1825 56.8188 98.7458V55.7616L45.6023 47.0497C45.2644 46.7796 45.0463 46.3873 44.9954 45.9577C44.9444 45.5281 45.0645 45.0957 45.3299 44.7539C45.5952 44.4122 45.9843 44.1887 46.4131 44.1316C46.842 44.0745 47.2761 44.1885 47.6215 44.4489L59.4762 53.6534C59.6744 53.8073 59.8348 54.0044 59.9451 54.2297C60.0555 54.455 60.1129 54.7026 60.113 54.9535V98.7458C60.113 98.9621 60.0704 99.1764 59.9876 99.3762C59.9047 99.5761 59.7833 99.7576 59.6303 99.9105C59.4773 100.063 59.2956 100.185 59.0957 100.267C58.8958 100.35 58.6816 100.392 58.4652 100.392Z" fill="#333333"/>
<path d="M64.4071 101.709C63.9704 101.709 63.5516 101.536 63.2429 101.227C62.9341 100.918 62.7606 100.5 62.7606 100.063V78.1667C62.7606 77.7301 62.9341 77.3113 63.2429 77.0025C63.5516 76.6937 63.9704 76.5203 64.4071 76.5203C64.8438 76.5203 65.2626 76.6937 65.5713 77.0025C65.8801 77.3113 66.0536 77.7301 66.0536 78.1667V100.063C66.0536 100.5 65.8801 100.918 65.5713 101.227C65.2626 101.536 64.8438 101.709 64.4071 101.709Z" fill="#333333"/>
<path d="M51.6396 100.612C51.203 100.612 50.7842 100.438 50.4754 100.129C50.1666 99.8205 49.9932 99.4018 49.9932 98.9651V62.084C49.9932 61.6473 50.1666 61.2285 50.4754 60.9197C50.7842 60.611 51.203 60.4375 51.6396 60.4375C52.0763 60.4375 52.4951 60.611 52.8039 60.9197C53.1126 61.2285 53.2861 61.6473 53.2861 62.084V98.9651C53.2861 99.4018 53.1126 99.8205 52.8039 100.129C52.4951 100.438 52.0763 100.612 51.6396 100.612Z" fill="#333333"/>
<path d="M70.0044 134.601V91.8523H46.9537V134.601C46.9525 135.326 46.7991 136.042 46.5036 136.704C46.2081 137.366 45.7769 137.958 45.2381 138.443C42.2728 141.12 40.1888 144.633 39.2609 148.519C38.333 152.405 38.6049 156.481 40.0407 160.209C41.4764 163.937 44.0086 167.142 47.3032 169.402C50.5978 171.661 54.5 172.869 58.495 172.866C62.4901 172.862 66.3902 171.648 69.681 169.383C72.9718 167.118 75.4985 163.908 76.928 160.178C78.3575 156.447 78.6224 152.371 77.688 148.487C76.7535 144.602 74.6635 141.093 71.6937 138.421C71.1604 137.938 70.7345 137.348 70.4435 136.69C70.1525 136.033 70.0029 135.321 70.0044 134.601Z" fill="#7D80BA"/>
<g style="mix-blend-mode:screen" opacity="0.6">
<path d="M78.2381 141.438C77.8193 140.669 77.35 139.929 76.8334 139.221C77.1002 140.07 77.5844 140.835 78.2381 141.438Z" fill="#7D80BA"/>
<path d="M45.3243 156.932C45.2091 154.041 45.7322 151.16 46.8562 148.494C47.9802 145.828 49.6776 143.442 51.8279 141.506C52.3662 141.021 52.7967 140.429 53.0916 139.767C53.3866 139.105 53.5394 138.389 53.5402 137.664V94.9155H72.4187V89.6467H49.368V132.395C49.3673 133.12 49.2145 133.836 48.9196 134.498C48.6246 135.16 48.1941 135.752 47.6557 136.237C45.599 138.089 43.9555 140.352 42.8323 142.881C41.7092 145.41 41.1316 148.147 41.1372 150.914C41.1429 153.681 41.7317 156.416 42.8651 158.94C43.9986 161.465 45.6514 163.722 47.7156 165.564C46.2595 162.912 45.4408 159.956 45.3243 156.932Z" fill="#7D80BA"/>
</g>
<path d="M58.5007 176.152C58.0072 176.152 57.5119 176.137 57.0149 176.106C52.4898 175.819 48.1498 174.203 44.5384 171.462C40.9269 168.72 38.2045 164.974 36.7119 160.693C35.2192 156.411 35.0228 151.784 36.147 147.392C37.2713 142.999 39.6664 139.036 43.0324 135.998C43.2293 135.821 43.3871 135.606 43.4957 135.365C43.6042 135.124 43.6611 134.863 43.6626 134.599V91.8523C43.6626 90.9789 44.0096 90.1413 44.6271 89.5238C45.2447 88.9062 46.0822 88.5593 46.9556 88.5593H70.0063C70.8796 88.5593 71.7172 88.9062 72.3348 89.5238C72.9523 90.1413 73.2992 90.9789 73.2992 91.8523V134.601C73.2978 134.859 73.3506 135.115 73.454 135.351C73.5575 135.587 73.7094 135.799 73.8999 135.973C76.271 138.106 78.1736 140.708 79.4872 143.614C80.8008 146.52 81.4967 149.668 81.531 152.857C81.5653 156.046 80.9372 159.207 79.6865 162.141C78.4357 165.075 76.5895 167.717 74.2647 169.901C70.0076 173.931 64.3631 176.17 58.5007 176.152ZM50.2485 95.1452V134.601C50.2462 135.786 49.9957 136.957 49.5133 138.04C49.0309 139.123 48.3272 140.092 47.4476 140.886C44.9762 143.117 43.2392 146.045 42.4657 149.283C41.6922 152.521 41.9186 155.918 43.115 159.025C44.3113 162.132 46.4215 164.803 49.167 166.686C51.9125 168.569 55.1645 169.576 58.4937 169.573C61.823 169.57 65.0733 168.558 67.8157 166.67C70.558 164.783 72.6637 162.108 73.8549 158.999C75.046 155.89 75.2667 152.493 74.4878 149.256C73.7089 146.019 71.967 143.095 69.4919 140.868C68.616 140.076 67.916 139.109 67.4371 138.03C66.9583 136.95 66.7112 135.782 66.712 134.601V95.1452H50.2485Z" fill="#333333"/>
<path d="M58.4666 67.7926C58.1138 67.793 57.7702 67.68 57.4864 67.4704C57.2027 67.2607 56.9938 66.9655 56.8905 66.6281C56.7872 66.2908 56.795 65.9292 56.9128 65.5966C57.0305 65.264 57.252 64.9781 57.5445 64.7809L66.3795 58.82V45.7509C66.3796 45.5308 66.4237 45.313 66.5093 45.1103C66.5949 44.9076 66.7203 44.7241 66.8781 44.5707L73.1538 38.4695C73.4669 38.1651 73.8881 37.9975 74.3248 38.0036C74.7615 38.0097 75.1778 38.189 75.4823 38.5021C75.7867 38.8152 75.9543 39.2364 75.9482 39.6731C75.9421 40.1098 75.7628 40.5261 75.4497 40.8306L69.6725 46.4464V59.6979C69.6726 59.9673 69.6066 60.2325 69.4803 60.4704C69.354 60.7084 69.1712 60.9116 68.948 61.0625L59.3879 67.5127C59.1157 67.6961 58.7948 67.7936 58.4666 67.7926Z" fill="#333333"/>
<path d="M68.0253 47.3974C67.5886 47.3974 67.1698 47.224 66.861 46.9152C66.5523 46.6064 66.3788 46.1876 66.3788 45.751V16.0261C66.3788 15.5894 66.5523 15.1707 66.861 14.8619C67.1698 14.5531 67.5886 14.3796 68.0253 14.3796C68.4619 14.3796 68.8807 14.5531 69.1895 14.8619C69.4983 15.1707 69.6717 15.5894 69.6717 16.0261V45.751C69.6717 46.1876 69.4983 46.6064 69.1895 46.9152C68.8807 47.224 68.4619 47.3974 68.0253 47.3974Z" fill="#333333"/>
<path d="M68.0239 31.3752C67.6439 31.3756 67.2755 31.2438 66.982 31.0025L57.4219 23.1744C57.2523 23.0382 57.1113 22.8697 57.0071 22.6787C56.903 22.4877 56.8378 22.2779 56.8152 22.0616C56.7926 21.8452 56.8131 21.6265 56.8755 21.4181C56.938 21.2096 57.0411 21.0157 57.179 20.8474C57.3168 20.679 57.4867 20.5397 57.6787 20.4374C57.8707 20.3352 58.0811 20.2719 58.2977 20.2515C58.5143 20.231 58.7328 20.2536 58.9406 20.3181C59.1484 20.3825 59.3413 20.4875 59.5083 20.627L69.0684 28.455C69.3312 28.6703 69.5209 28.9615 69.6117 29.2888C69.7025 29.6161 69.6898 29.9635 69.5754 30.2833C69.461 30.6031 69.2505 30.8797 68.9727 31.0752C68.695 31.2707 68.3636 31.3755 68.0239 31.3752Z" fill="#333333"/>
<path d="M51.6382 79.8132C51.2609 79.8133 50.8951 79.6836 50.6022 79.4457L43.5981 73.7687C43.4301 73.6325 43.2906 73.4646 43.1875 73.2746C43.0843 73.0845 43.0197 72.876 42.9971 72.661C42.9746 72.4459 42.9946 72.2285 43.0561 72.0212C43.1176 71.8139 43.2193 71.6207 43.3554 71.4527C43.4916 71.2847 43.6594 71.1452 43.8495 71.0421C44.0396 70.939 44.2481 70.8743 44.4631 70.8517C44.6782 70.8292 44.8956 70.8493 45.1029 70.9107C45.3102 70.9722 45.5034 71.0739 45.6714 71.21L52.6761 76.8878C52.9405 77.1021 53.132 77.3931 53.2242 77.7207C53.3164 78.0484 53.3048 78.3965 53.191 78.7173C53.0772 79.038 52.8668 79.3156 52.5887 79.5119C52.3106 79.7082 51.9785 79.8134 51.6382 79.8132Z" fill="#333333"/>
<g style="mix-blend-mode:screen" opacity="0.6">
<path d="M56.4246 153.899C57.4163 152.161 57.2136 150.178 55.9718 149.469C54.7301 148.76 52.9195 149.594 51.9277 151.332C50.936 153.069 51.1387 155.052 52.3805 155.761C53.6223 156.47 55.4329 155.636 56.4246 153.899Z" fill="#7D80BA"/>
</g>
<path d="M287.19 414.811H235.034C234.161 414.811 233.323 414.464 232.705 413.846C232.088 413.228 231.741 412.391 231.741 411.518C231.741 410.644 232.088 409.807 232.705 409.189C233.323 408.572 234.161 408.225 235.034 408.225H287.19C288.064 408.225 288.901 408.572 289.519 409.189C290.136 409.807 290.483 410.644 290.483 411.518C290.483 412.391 290.136 413.228 289.519 413.846C288.901 414.464 288.064 414.811 287.19 414.811Z" fill="#1D2F3D"/>
<path d="M220.458 414.811H212.121C211.248 414.811 210.41 414.464 209.793 413.846C209.175 413.228 208.828 412.391 208.828 411.518C208.828 410.644 209.175 409.807 209.793 409.189C210.41 408.572 211.248 408.225 212.121 408.225H220.458C221.332 408.225 222.169 408.572 222.787 409.189C223.404 409.807 223.751 410.644 223.751 411.518C223.751 412.391 223.404 413.228 222.787 413.846C222.169 414.464 221.332 414.811 220.458 414.811Z" fill="#1D2F3D"/>
</svg>
